<?xml version="1.0" encoding="UTF-8"?>
<svg id="Camada_2" data-name="Camada 2" xmlns="http://www.w3.org/2000/svg" viewBox="0 0 360.03 255.48">
  <defs>
    <style>
      .cls-1 {
        fill: #75ff7c;
      }

      .cls-2 {
        fill: #e72282;
      }

      .cls-3 {
        fill: #1d1d1b;
      }
    </style>
  </defs>
  <g id="Camada_2-2" data-name="Camada 2">
    <g>
      <path class="cls-1" d="m217.64,58.59s-20.83,22.78-45.96,45.55c-25.14,22.78-13.25,50.07-13.25,50.07,0,0-22.08-19.84-43.69-43.78-21.61-23.97,0-49.11,0-49.11L168.53,6.37c31.43-17.68,51.44,7.05,51.44,7.05,16.11,28.28-2.33,45.18-2.33,45.18Z"/>
      <path class="cls-2" d="m270.24,106.89l-58.37,58.75c-.61.64-1.31,1.22-2.07,1.66-16.86,10.02-31.84,3.61-37.19.61-1.28-.73-3.07-2.6-3.92-3.82-14.48-20.3,2.29-40.48,5.26-44.09.29-.32.58-.64.93-.93,36.38-33.64,50.68-51.61,54.96-57.5.84-1.16,1.46-2.48,1.72-3.9,2.3-12.2,18.52-6.93,22.78-5.36.67.26,1.31.58,1.95.99,3.41,2.21,15.06,10.69,19.08,25.72,4.69,17.68-5.13,27.87-5.13,27.87Z"/>
    </g>
    <g>
      <path class="cls-3" d="m0,234.46h11.83v9.86H0v-9.86Z"/>
      <path class="cls-3" d="m49.28,243.66c-8.45.88-16.12,1.31-23,1.31-2.98,0-5.37-.9-7.16-2.69-1.8-1.8-2.7-4.18-2.7-7.16v-15.77c0-3.29.93-5.86,2.79-7.72s4.43-2.79,7.72-2.79h13.14c3.29,0,5.86.93,7.72,2.79,1.86,1.86,2.79,4.43,2.79,7.72v12.15h-22.67v2.63c0,.66.22,1.21.66,1.64s.99.66,1.64.66c4.34,0,10.69-.33,19.05-.99v8.21Zm-18.73-26.61c-1.75,0-2.63.88-2.63,2.63v3.61h11.17v-3.61c0-1.75-.88-2.63-2.63-2.63h-5.91Z"/>
      <path class="cls-3" d="m75.88,218.36c-2.32,0-4.95.44-7.88,1.32v24.64h-11.5v-34.82h10.18l.66,3.29c2.06-1.36,4.17-2.35,6.34-2.99,2.17-.63,4-.95,5.49-.95h2.96c2.98,0,5.36.9,7.16,2.69,1.8,1.8,2.69,4.18,2.69,7.16v25.62h-11.5v-23.65c0-.66-.22-1.2-.66-1.64-.44-.44-.99-.66-1.64-.66h-2.3Z"/>
      <path class="cls-3" d="m122.2,244.31c-4.25.44-8.41.66-12.48.66-2.98,0-5.36-.9-7.16-2.69s-2.69-4.18-2.69-7.16v-16.76h-3.94v-8.87h3.94l1.31-7.88h10.18v7.88h8.21v8.87h-8.21v15.11c0,.66.22,1.21.66,1.64s.99.66,1.64.66h8.54v8.54Z"/>
      <path class="cls-3" d="m158.34,243.66c-8.45.88-16.12,1.31-23,1.31-2.98,0-5.37-.9-7.16-2.69-1.8-1.8-2.7-4.18-2.7-7.16v-15.77c0-3.29.93-5.86,2.79-7.72s4.43-2.79,7.72-2.79h13.14c3.29,0,5.86.93,7.72,2.79,1.86,1.86,2.79,4.43,2.79,7.72v12.15h-22.67v2.63c0,.66.22,1.21.66,1.64s.99.66,1.64.66c4.34,0,10.69-.33,19.05-.99v8.21Zm-18.73-26.61c-1.75,0-2.63.88-2.63,2.63v3.61h11.17v-3.61c0-1.75-.88-2.63-2.63-2.63h-5.91Z"/>
      <path class="cls-3" d="m185.6,219.02c-2.76,0-5.61.66-8.54,1.97v23.32h-11.5v-34.82h10.18l.66,4.27c3.77-3.29,7.71-4.93,11.83-4.93h2.96v10.18h-5.59Z"/>
      <path class="cls-3" d="m207.28,244.31v11.17h-11.5v-45.99h10.18l.66,3.29c2.06-1.36,4.17-2.35,6.34-2.99,2.17-.63,4-.95,5.49-.95h2.96c2.98,0,5.36.9,7.16,2.69,1.8,1.8,2.69,4.18,2.69,7.16v15.11c0,3.29-.93,5.86-2.79,7.72s-4.43,2.79-7.72,2.79h-13.47Zm7.88-25.95c-2.32,0-4.95.44-7.88,1.32v15.77h9.85c1.75,0,2.63-.88,2.63-2.63v-12.16c0-.66-.22-1.2-.66-1.64-.44-.44-.99-.66-1.64-.66h-2.3Z"/>
      <path class="cls-3" d="m257.21,219.02c-2.76,0-5.61.66-8.54,1.97v23.32h-11.5v-34.82h10.18l.66,4.27c3.77-3.29,7.71-4.93,11.83-4.93h2.96v10.18h-5.59Z"/>
      <path class="cls-3" d="m281.85,210.81v33.51h-11.5v-24.64h-4.93v-8.87h16.43Z"/>
      <path class="cls-3" d="m287.11,235.12c8.89.66,15.9.98,21.02.98.66,0,1.21-.22,1.65-.66.43-.44.66-.99.66-1.64v-2.3h-14.13c-2.98,0-5.37-.9-7.16-2.69-1.8-1.8-2.69-4.18-2.69-7.16v-2.3c0-2.98.9-5.36,2.69-7.16s4.18-2.7,7.16-2.7h22.34v8.54h-18.4c-.65,0-1.21.22-1.64.66-.44.44-.66.99-.66,1.64s.22,1.21.66,1.64c.43.44.98.66,1.64.66h11.83c2.98,0,5.37.9,7.16,2.69,1.8,1.8,2.7,4.18,2.7,7.16v2.63c0,2.98-.9,5.36-2.7,7.16-1.79,1.8-4.18,2.69-7.16,2.69-7.75,0-16.07-.44-24.97-1.31v-8.54Z"/>
      <path class="cls-3" d="m358.72,243.66c-8.46.88-16.12,1.31-22.99,1.31-2.98,0-5.37-.9-7.16-2.69s-2.7-4.18-2.7-7.16v-15.77c0-3.29.93-5.86,2.79-7.72,1.86-1.86,4.43-2.79,7.72-2.79h13.14c3.29,0,5.86.93,7.72,2.79,1.86,1.86,2.79,4.43,2.79,7.72v12.15h-22.67v2.63c0,.66.22,1.21.66,1.64s.98.66,1.64.66c4.33,0,10.69-.33,19.05-.99v8.21Zm-18.72-26.61c-1.76,0-2.63.88-2.63,2.63v3.61h11.17v-3.61c0-1.75-.88-2.63-2.63-2.63h-5.91Z"/>
    </g>
    <g>
      <path d="m277.08,193.1s-2.12,2.32-4.68,4.64c-2.56,2.32-1.35,5.1-1.35,5.1,0,0-2.25-2.02-4.45-4.46-2.2-2.44,0-5,0-5l5.48-5.6c3.2-1.8,5.24.72,5.24.72,1.64,2.88-.24,4.6-.24,4.6Z"/>
      <path d="m282.44,198.02l-5.95,5.98c-.06.07-.13.12-.21.17-1.72,1.02-3.24.37-3.79.06-.13-.07-.31-.26-.4-.39-1.47-2.07.23-4.12.54-4.49.03-.03.06-.07.09-.09,3.71-3.43,5.16-5.26,5.6-5.86.09-.12.15-.25.18-.4.23-1.24,1.89-.71,2.32-.55.07.03.13.06.2.1.35.23,1.53,1.09,1.94,2.62.48,1.8-.52,2.84-.52,2.84Z"/>
    </g>
  </g>
</svg>